<svg width="36px" height="36px" viewBox="0 0 24 24" version="1.1" xmlns="http://www.w3.org/2000/svg" xmlns:xlink="http://www.w3.org/1999/xlink" opacity="1">
    <title>解析进度-异常</title>
    <g id="解析进度-异常" stroke="none" stroke-width="1" fill="none" fill-rule="evenodd">
        <path d="M11.9999634,4 C7.58193371,4 4,7.58174103 4,12.0001006 C4,16.4183504 7.58193371,20 11.9999634,20 C16.4183406,20 20,16.4183321 20,12.0001006 C20,7.58174103 16.4183406,4 11.9999634,4 Z" id="Path" fill="#FF0000" fill-rule="nonzero"/>
        <path d="M15.8764722,15.8764707 C15.7118071,16.0411764 15.4447685,16.0411764 15.2799299,15.8764707 L11.9999494,12.5963523 L8.72000747,15.8764707 C8.55532307,16.0411764 8.28830375,16.0411764 8.12360006,15.8764707 C7.95879998,15.7117842 7.95879998,15.4448 8.12360006,15.2800557 L11.4036191,11.9999759 L8.12360006,8.71981896 C7.95879998,8.55526743 7.95879998,8.28820618 8.12360006,8.12344257 C8.28832303,7.95885248 8.55534234,7.95885248 8.72000747,8.12344257 L12.0000265,11.4035417 L14.9819093,8.42160185 C15.1465744,8.25701176 15.413613,8.25701176 15.5781047,8.42160185 C15.7428276,8.58636545 15.7428276,8.85342671 15.5781047,9.0180168 L12.5963761,11.9998988 L15.8764722,15.2800557 C16.0411759,15.4448 16.0411759,15.7117842 15.8764722,15.8764707 L15.8764722,15.8764707 Z" id="Path" fill="#FFFFFF" fill-rule="nonzero"/>
    </g>
</svg>