<svg width="36px" height="36px" viewBox="0 0 24 24" version="1.1" xmlns="http://www.w3.org/2000/svg" xmlns:xlink="http://www.w3.org/1999/xlink" opacity="1">
    <title>解析进度-解析完成</title>
    <g id="解析进度-解析完成" stroke="none" stroke-width="1" fill="none" fill-rule="evenodd">
        <rect id="矩形" fill-opacity="0" fill="#D8D8D8" x="0" y="0" width="24" height="24"/>
        <g id="base/common/success-alter" transform="translate(3.500000, 3.500000)">
            <rect id="area" x="0" y="0" width="17" height="17"/>
            <path d="M8.5,0.53125 C4.09925781,0.53125 0.53125,4.09925781 0.53125,8.5 C0.53125,12.9007422 4.09925781,16.46875 8.5,16.46875 C12.9007422,16.46875 16.46875,12.9007422 16.46875,8.5 C16.46875,4.09925781 12.9007422,0.53125 8.5,0.53125 Z" id="Shape" fill="#6EC90D" fill-rule="nonzero"/>
            <path d="M12.639576,5.98855262 L7.19523193,11.0196034 L4.56644828,8.39081977 C4.37271706,8.19708855 4.05777964,8.19708855 3.86404842,8.39081977 C3.67031719,8.58455099 3.67031719,8.89948841 3.86404842,9.09321963 L6.84452874,12.0737 C6.9418911,12.1710623 7.06905826,12.21875 7.19622542,12.21875 C7.32339258,12.21875 7.45055974,12.1700688 7.5479221,12.0737 L13.3429693,6.69194598 C13.5367006,6.49821476 13.5367006,6.18327734 13.3429693,5.98954612 C13.1492381,5.7958149 12.8333072,5.7948214 12.639576,5.98855262 Z" id="Shape" fill="#FFFFFF" fill-rule="nonzero"/>
        </g>
    </g>
</svg>